<?xml version="1.0" encoding="UTF-8"?>
<svg width="800" height="600" viewBox="0 0 800 600" fill="none" xmlns="http://www.w3.org/2000/svg">
  <!-- Background Elements -->
  <path d="M0 0h800v600H0z" fill="#F8F9FF"/>
  
  <!-- Decorative Circles -->
  <circle cx="600" cy="100" r="50" fill="#E0E7FF" opacity="0.5"/>
  <circle cx="650" cy="150" r="30" fill="#C7D2FE" opacity="0.3"/>
  <circle cx="200" cy="500" r="40" fill="#E0E7FF" opacity="0.4"/>
  
  <!-- Main Elements -->
  <!-- Screen/Canvas -->
  <rect x="250" y="150" width="300" height="200" rx="10" fill="#4F46E5" opacity="0.1"/>
  <rect x="270" y="170" width="260" height="160" rx="5" fill="white" stroke="#4F46E5" stroke-width="2"/>
  
  <!-- Creative Tools -->
  <path d="M300 200l40 40-40 40M400 280h100M300 240h200" stroke="#4F46E5" stroke-width="2"/>
  
  <!-- Person Silhouette -->
  <path d="M380 400c30 0 54.3-24.3 54.3-54.3 0-30-24.3-54.3-54.3-54.3-30 0-54.3 24.3-54.3 54.3 0 30 24.3 54.3 54.3 54.3z" fill="#4F46E5" opacity="0.2"/>
  <path d="M380 380c19 0 34.3-15.3 34.3-34.3 0-19-15.3-34.3-34.3-34.3-19 0-34.3 15.3-34.3 34.3 0 19 15.3 34.3 34.3 34.3z" fill="#4F46E5" opacity="0.3"/>
  
  <!-- Floating Elements -->
  <rect x="500" y="250" width="40" height="40" rx="8" fill="#4F46E5" opacity="0.1"/>
  <rect x="520" y="270" width="40" height="40" rx="8" fill="#4F46E5" opacity="0.15"/>
  <rect x="540" y="290" width="40" height="40" rx="8" fill="#4F46E5" opacity="0.2"/>
  
  <!-- Abstract Shapes -->
  <path d="M200 150l30 30-30 30" stroke="#4F46E5" stroke-width="2" opacity="0.5"/>
  <path d="M150 200l30 30-30 30" stroke="#4F46E5" stroke-width="2" opacity="0.3"/>
  <path d="M250 200l30 30-30 30" stroke="#4F46E5" stroke-width="2" opacity="0.7"/>
</svg> 