<?xml version="1.0" encoding="UTF-8"?>
<svg xmlns="http://www.w3.org/2000/svg" width="205" height="54" viewBox="0 0 205 54" role="img" aria-labelledby="title desc">
  <title id="title">LoopsKey logo</title>
  <desc id="desc">LoopsKey wordmark and icon in near-white lavender on a transparent background.</desc>
  <defs>
    <linearGradient id="loopskey-brand" x1="0" y1="0" x2="205" y2="54" gradientUnits="userSpaceOnUse">
      <stop offset="0" stop-color="#FFFFFF"/>
      <stop offset="1" stop-color="#EBDDF8"/>
    </linearGradient>
  </defs>
  <path fill="url(#loopskey-brand)" fill-rule="evenodd" d="M 132 35 L 130.75 34.875 L 130.625 34.75 L 129.875 34.625 L 129.75 34.5 L 121.375 34.5 L 120.875 34.875 L 120.625 35.375 L 120.625 52.375 L 120.75 52.625 L 121.25 52.875 L 123.75 52.875 L 124.375 52.5 L 124.375 52.25 L 124.5 52.125 L 124.375 51.875 L 124.375 47.125 L 124.5 47 L 124.5 46.75 L 124.875 46.375 L 125.125 46.25 L 125.5 46.25 L 125.625 46.125 L 126 46.125 L 126.125 46.25 L 129.5 46.25 L 129.625 46.125 L 130.375 46.125 L 130.5 46 L 131.125 46 L 131.25 45.875 L 131.875 45.75 L 133.5 44.375 L 133.5 44.25 L 134.375 43.125 L 134.75 42.375 L 134.75 41.375 L 134.875 41.25 L 134.875 39.25 L 134.75 39.125 L 134.75 38.375 L 134.625 38.25 L 134.625 37.875 L 134.375 37.375 L 134.125 37.125 L 133.75 36.25 L 133.5 36 L 133 35.75 L 132.5 35.25 Z M 124.5 38.125 L 124.875 37.75 L 125.375 37.625 L 125.5 37.5 L 128.5 37.5 L 128.625 37.625 L 129.375 37.625 L 129.5 37.75 L 130.375 38 L 131 38.75 L 131.125 39.75 L 131.25 39.875 L 131.125 41.25 L 131 41.375 L 130.875 42 L 130.375 42.625 L 129.375 43.125 L 128.5 43.125 L 128.375 43.25 L 127.75 43.25 L 127.625 43.125 L 126.375 43.125 L 126.25 43.25 L 125.5 43.25 L 125.375 43.125 L 124.875 43 L 124.375 42.5 L 124.375 38.375 Z M 189.625 34.375 L 189.375 34.5 L 189.25 34.75 L 189.25 35.375 L 189.875 36.25 L 190.125 37.125 L 190.625 37.625 L 191.125 38.625 L 191.25 39.125 L 191.75 39.75 L 192.25 41.125 L 192.75 41.75 L 193.375 43.125 L 193.75 43.5 L 194.125 44.625 L 194.875 45.5 L 194.875 45.75 L 195 45.875 L 195 52.5 L 195.125 52.75 L 195.375 52.875 L 198.375 52.875 L 198.625 52.75 L 198.875 52.375 L 198.875 51.75 L 198.75 51.625 L 198.75 46.375 L 198.875 46.25 L 198.875 45.5 L 199.25 44.75 L 199.625 44.375 L 200 43.375 L 200.875 42.125 L 200.875 41.75 L 201.125 41.25 L 201.625 40.625 L 202.125 39.5 L 202.5 39.125 L 202.875 38.375 L 203 37.75 L 203.5 37.125 L 203.875 36.375 L 203.875 36.125 L 204.25 35.25 L 204.25 34.875 L 203.75 34.5 L 201.25 34.5 L 201.125 34.625 L 200.625 34.75 L 200.125 35.25 L 199.875 36.125 L 199.375 36.75 L 199 37.5 L 199 38 L 198.875 38.125 L 198.875 38.375 L 198.125 39.5 L 198.125 39.75 L 198 39.875 L 198 40.375 L 197.75 40.75 L 197.75 41 L 197.125 41.5 L 196.375 41.5 L 196 41 L 196 40.75 L 195.875 40.625 L 195.625 39.75 L 195 38.875 L 195 38.625 L 194.75 38.25 L 194.625 37.75 L 194 36.875 L 193.625 35.5 L 192.75 34.625 L 192.5 34.5 L 190 34.5 L 189.875 34.375 Z M 173.375 34.5 L 173 35.125 L 173 52.5 L 173.125 52.75 L 173.375 52.875 L 186.5 52.875 L 186.75 52.75 L 186.875 52.5 L 186.875 50.25 L 186.625 50 L 186.625 49.875 L 186.375 49.75 L 185.625 49.75 L 185.5 49.875 L 177.5 49.875 L 176.875 49.375 L 176.875 49 L 176.75 48.875 L 176.75 45.5 L 176.875 45.25 L 177.375 44.875 L 185.375 44.875 L 185.625 44.75 L 185.875 44.375 L 185.875 43.75 L 185.75 43.625 L 185.75 43.25 L 185.875 43.125 L 185.875 42.5 L 185.75 42.25 L 185.25 41.875 L 178.25 41.875 L 178.125 42 L 177.5 42 L 177.25 41.875 L 176.75 41.25 L 176.75 38.5 L 176.875 38.375 L 177 37.875 L 177.5 37.5 L 184.625 37.5 L 184.75 37.625 L 185.875 37.5 L 186.375 37.125 L 186.5 36.875 L 186.5 36.375 L 186.625 36.25 L 186.625 35.625 L 186.5 35.5 L 186.5 35.125 L 186.375 34.875 L 186.125 34.625 L 185.875 34.625 L 185.75 34.5 L 174 34.5 L 173.875 34.375 Z M 154.625 34.625 L 154.375 34.875 L 154.25 35.375 L 154.125 35.5 L 154.125 52.375 L 154.25 52.625 L 154.75 52.875 L 157.5 52.875 L 157.875 52.625 L 158 52.375 L 158 48.25 L 157.875 48.125 L 158 47.125 L 158.375 46.5 L 159.375 45.375 L 159.625 45.25 L 160.375 45.25 L 160.875 45.625 L 160.875 45.875 L 161.125 46.375 L 161.875 47.125 L 162.125 47.625 L 163 48.625 L 163.25 49.125 L 163.875 49.75 L 164.25 50.5 L 164.875 51.125 L 165.125 51.625 L 166.125 52.75 L 166.375 52.875 L 169.875 52.875 L 170.25 52.625 L 170.25 52.125 L 169.125 51 L 169 50.625 L 168.625 50.25 L 168.625 50.125 L 168.125 49.75 L 168.125 49.625 L 167.75 49.25 L 167.625 48.875 L 167 48.25 L 166.75 47.75 L 166.125 47.125 L 165.875 46.625 L 165.375 46.125 L 165.375 46 L 164.875 45.5 L 164.875 45.375 L 164 44.5 L 163.625 43.75 L 162.875 43 L 162.75 42.75 L 162.75 42.125 L 163 41.875 L 163 41.75 L 163.25 41.5 L 163.375 41.5 L 165.5 39.375 L 165.5 39.25 L 166 38.75 L 166 38.625 L 167.125 37.5 L 167.125 37.375 L 167.875 36.625 L 167.875 36.5 L 168.875 35.625 L 169 35.375 L 169 34.625 L 168.875 34.5 L 165.75 34.5 L 165.25 34.75 L 164 36 L 164 36.125 L 163 37.125 L 163 37.25 L 161 39.375 L 161 39.5 L 160.5 40 L 160.375 40 L 160.125 40.25 L 160.125 40.375 L 159.25 41.125 L 158.875 41.75 L 158.5 42 L 158.375 42 L 157.875 41.5 L 157.875 40.5 L 158 40.375 L 158 35.375 L 157.875 35.25 L 157.75 34.75 L 157.5 34.5 L 157.25 34.5 L 157.125 34.375 L 157 34.5 L 154.875 34.5 Z M 68.375 34.5 L 68.125 34.75 L 68 35.25 L 67.875 35.375 L 67.875 52.375 L 68 52.625 L 68.375 52.875 L 80.125 52.875 L 80.625 52.625 L 80.75 52.375 L 80.75 50.5 L 80.25 49.875 L 79.5 49.875 L 79.375 49.75 L 78.625 49.75 L 78.5 49.875 L 72.5 49.875 L 71.75 49.25 L 71.75 48.375 L 71.625 48.25 L 71.625 47.75 L 71.75 47.625 L 71.75 35.5 L 71.625 35.375 L 71.625 35 L 71.375 34.75 L 71.375 34.625 L 71.125 34.625 L 71 34.5 L 68.875 34.5 L 68.75 34.375 L 68.625 34.5 Z M 139.25 35 L 138.75 35.25 L 137.125 36.875 L 137 37.375 L 136.75 37.75 L 136.75 38 L 136.375 38.625 L 136.375 41 L 136.5 41.125 L 136.5 41.375 L 136.75 41.625 L 136.75 41.875 L 137.125 42.625 L 138.5 43.875 L 139.25 44 L 140.5 44.625 L 141.75 44.75 L 141.875 44.875 L 142.75 44.875 L 142.875 45 L 143.375 45 L 143.5 45.125 L 144.375 45.125 L 145.625 45.75 L 146.625 46 L 147.625 47.125 L 147.75 47.625 L 147.875 47.75 L 147.875 48.25 L 147.5 48.875 L 147.125 49.25 L 147.125 49.375 L 146.5 50 L 146.25 50.125 L 145.25 50.25 L 145.125 50.375 L 144.375 50.375 L 144.25 50.5 L 143.125 50.5 L 143 50.375 L 142.625 50.375 L 142.125 50.125 L 141.5 50.125 L 141.25 50 L 140.125 49 L 139.625 47.875 L 139.125 47.5 L 137 47.5 L 136.875 47.375 L 136.625 47.375 L 136.375 47.5 L 136.125 47.875 L 136.125 49 L 136.75 49.875 L 136.75 50.125 L 137.125 50.625 L 137.25 51 L 138 51.75 L 138.375 51.875 L 139.75 52.875 L 141.25 53 L 141.375 53.125 L 141.75 53.125 L 141.875 53.25 L 142.875 53.5 L 143 53.375 L 144.75 53.375 L 144.875 53.25 L 145.25 53.25 L 145.375 53.125 L 145.875 53.125 L 146 53 L 146.625 53 L 146.75 52.875 L 147.5 52.875 L 147.625 52.75 L 147.875 52.75 L 148.75 52.125 L 149.625 51.75 L 149.875 51.5 L 150.25 50.75 L 150.625 50.375 L 150.875 49.875 L 150.875 49.5 L 151 49.375 L 151 48.75 L 151.125 48.625 L 151.25 47.875 L 151.375 47.75 L 151.375 46.5 L 151.125 46.125 L 150.75 44.75 L 149.5 43.5 L 149.375 43.5 L 149.125 43.25 L 148.875 43.25 L 148.375 43 L 148 43 L 147.25 42.625 L 146.5 42.5 L 146 42.25 L 144.625 42.125 L 144.5 42 L 143.875 42 L 143.75 41.875 L 142.75 41.875 L 142.625 41.75 L 141.625 41.5 L 141.125 41.125 L 140.5 41 L 139.875 40.375 L 139.875 38.5 L 140.375 37.875 L 141.75 37.125 L 142.375 37.125 L 142.5 37 L 143.5 37 L 143.625 37.125 L 143.875 37 L 144 37.125 L 144.5 37.125 L 144.625 37.25 L 145.25 37.375 L 145.875 37.875 L 146.25 38 L 146.75 38.5 L 147 39.375 L 147.25 39.625 L 147.25 39.75 L 147.5 39.875 L 147.75 39.875 L 147.875 40 L 150.25 40 L 150.75 39.625 L 150.75 39.375 L 150.875 39.25 L 150.625 38.125 L 150.375 37.625 L 149.875 37 L 149.75 36.625 L 148.125 35.125 L 146.75 34.75 L 146.375 34.5 L 146.125 34.5 L 145.625 34.25 L 144.625 34.25 L 144.5 34.125 L 142.5 34.125 L 142.375 34.25 L 140.875 34.375 L 139.875 34.875 Z M 106.875 34.375 L 106.75 34.5 L 106.5 34.5 L 106.25 34.75 L 106 34.75 L 105.25 35.125 L 105 35.125 L 104.375 35.5 L 104 35.875 L 103.375 36.125 L 103 36.5 L 102.625 37.25 L 102.125 37.75 L 101.75 38.625 L 101.5 38.875 L 101 39.75 L 100.875 41.125 L 100.75 41.25 L 100.625 42.125 L 100.375 42.625 L 100.25 43.875 L 100.375 44 L 100.375 44.625 L 100.5 44.75 L 100.5 45.25 L 100.625 45.375 L 100.625 45.75 L 100.75 45.875 L 100.875 47.125 L 101 47.25 L 101.125 48 L 101.75 48.875 L 101.75 49.125 L 102.125 49.875 L 103.375 51.25 L 103.375 51.375 L 104 51.875 L 105.625 52.875 L 107.25 53 L 107.375 53.125 L 107.75 53.125 L 107.875 53.25 L 108.625 53.375 L 108.75 53.5 L 109 53.375 L 110.75 53.375 L 110.875 53.25 L 111.25 53.25 L 111.375 53.125 L 111.75 53.125 L 111.875 53 L 113.125 52.875 L 115.375 51.5 L 116 50.75 L 116 50.625 L 116.5 50.125 L 116.625 49.75 L 117.625 48.375 L 117.625 48.125 L 117.75 48 L 117.75 47.5 L 117.875 47.375 L 117.875 47 L 118 46.875 L 118 46.5 L 118.125 46.375 L 118.25 45 L 118.375 44.875 L 118.375 42.625 L 118.25 42.5 L 118.25 42 L 118.125 41.875 L 118.125 41.5 L 118 41.375 L 118 40.875 L 117.875 40.75 L 117.875 40.125 L 117.75 40 L 117.75 39.625 L 117.375 39.125 L 116.75 37.75 L 115.25 36.125 L 115.125 36.125 L 113.75 35 L 113 34.875 L 112.875 34.75 L 112.5 34.75 L 111.875 34.375 L 111.625 34.375 L 111.5 34.25 L 111 34.25 L 110.875 34.125 L 110.75 34.25 L 110.5 34.125 L 108.5 34.125 L 108.375 34.25 Z M 110 37.375 L 110.5 37.625 L 110.875 37.625 L 111 37.75 L 111.375 37.75 L 111.5 37.875 L 112.125 38 L 113.875 39.75 L 114.25 40.5 L 114.375 41.25 L 114.625 41.625 L 114.625 42.125 L 114.75 42.25 L 114.75 43.25 L 114.875 43.375 L 114.875 44.5 L 114.75 44.625 L 114.875 44.875 L 114.75 45 L 114.75 45.5 L 114.625 45.625 L 114.625 45.875 L 114.125 46.875 L 114.125 47.375 L 113.625 48.25 L 113 48.875 L 111.25 50 L 110.625 50 L 110.5 50.125 L 109.375 50.125 L 109.25 50.25 L 109 50.25 L 108.875 50.125 L 107.5 50 L 106.75 49.625 L 105.125 48.125 L 104.625 47.125 L 104.625 46.875 L 104.25 46.25 L 104.25 45.75 L 104.125 45.625 L 104.125 45.25 L 104 45.125 L 104 44.25 L 103.875 44.125 L 103.875 43.75 L 104 43.625 L 104 42.5 L 104.125 42.375 L 104.125 41.75 L 104.375 41.375 L 104.5 40.75 L 105.125 39.5 L 106.75 38 L 107 38 L 107.5 37.75 L 107.875 37.75 L 108 37.625 L 108.375 37.625 L 108.875 37.375 Z M 88.25 34.25 L 88.125 34.375 L 87.625 34.375 L 87.25 34.625 L 86.875 34.625 L 86.75 34.75 L 86.5 34.75 L 86.375 34.875 L 85.5 35.125 L 84.5 36 L 84.375 36 L 84 36.375 L 84 36.5 L 83 37.375 L 82.625 38.125 L 82.25 38.5 L 82 39 L 81.75 40.375 L 81.375 41 L 81.375 41.25 L 81.125 41.75 L 81.125 45.75 L 81.875 47.5 L 82 48.5 L 82.375 49.25 L 82.875 49.75 L 83 50.25 L 84.375 51.75 L 85.375 52.125 L 85.75 52.5 L 86.5 52.875 L 87 52.875 L 87.125 53 L 88.125 53.125 L 88.25 53.25 L 88.625 53.25 L 88.75 53.375 L 91 53.375 L 91.125 53.25 L 91.75 53.25 L 91.875 53.125 L 92.5 53.125 L 92.625 53 L 93.125 53 L 93.25 52.875 L 94.125 52.75 L 94.875 52.125 L 95.625 51.75 L 96.875 50.5 L 97.25 49.75 L 97.625 49.375 L 98.375 47.875 L 98.375 47.625 L 98.625 47.375 L 98.625 47.125 L 98.75 47 L 98.75 46.25 L 98.875 46.125 L 98.875 44.5 L 99 44.375 L 99 43.75 L 98.875 43.625 L 98.875 41.5 L 98.75 41.375 L 98.75 40.5 L 98 39.25 L 97.75 38.25 L 96.875 37.25 L 96.625 36.75 L 96 36.125 L 95.875 36.125 L 94.625 35.125 L 94.125 35 L 94 34.875 L 93.625 34.875 L 92.875 34.5 L 92.5 34.5 L 92.125 34.25 L 91.5 34.25 L 91.375 34.125 L 89.375 34.125 L 89.25 34.25 Z M 88.5 37.625 L 89.5 37.5 L 89.625 37.375 L 90.75 37.375 L 90.875 37.5 L 91.25 37.5 L 91.625 37.75 L 92.125 37.75 L 92.875 38.125 L 93.375 38.625 L 93.5 38.625 L 94 39.125 L 94 39.25 L 94.5 39.75 L 94.5 39.875 L 95 40.5 L 95 40.875 L 95.125 41 L 95.125 41.375 L 95.25 41.5 L 95.375 43 L 95.5 43.125 L 95.5 44.625 L 95.375 44.75 L 95.375 45.125 L 95.25 45.25 L 95.25 45.625 L 95.125 45.75 L 95 47 L 94.75 47.5 L 94.25 48 L 94 48.5 L 93.5 49 L 93.375 49 L 92.875 49.5 L 92.75 49.5 L 92.125 50 L 91.375 50 L 91.25 50.125 L 89 50.125 L 88.875 50 L 88.375 50 L 88.25 49.875 L 87.875 49.875 L 87.625 49.75 L 87.125 49.25 L 86.625 49 L 85.875 48.25 L 85.625 47.625 L 85.25 47.125 L 85.25 46.875 L 84.875 46 L 84.875 45.25 L 84.75 45.125 L 84.75 42.875 L 84.875 42.75 L 84.875 41.625 L 85 41.5 L 85 40.875 L 85.125 40.75 L 85.125 40.5 L 85.375 40.25 L 85.875 39.375 L 86.375 38.875 L 86.5 38.875 L 87.5 38 L 88.375 37.75 Z M 49.5 20 L 49 20.375 L 48.375 21.5 L 48.375 21.75 L 48.25 21.875 L 48.375 22 L 48.375 22.5 L 49 23.625 L 49.5 24 L 50 24.25 L 50.625 24.375 L 50.75 24.5 L 51 24.375 L 51.375 24.375 L 51.625 24.125 L 52.5 23.625 L 52.875 23 L 52.875 22.75 L 53 22.625 L 53 21.625 L 52.875 21.5 L 52.875 21.25 L 52.625 20.75 L 52.125 20.25 L 51.375 19.875 L 49.875 19.875 L 49.75 20 Z M 46.875 12.375 L 46.25 12.875 L 45.75 13.875 L 45.75 14.125 L 45.5 14.375 L 45.125 15.125 L 45.125 15.375 L 44.875 15.625 L 44.875 15.75 L 44.625 15.875 L 43.75 16.75 L 43.625 17 L 43.625 17.875 L 44 18.75 L 44.25 19 L 44.5 19.125 L 44.625 19 L 45 19 L 45.25 18.875 L 46.875 17.5 L 47.25 16.75 L 48 16 L 48.625 16 L 49.5 16.875 L 50 17 L 50.875 17.75 L 51.125 17.75 L 51.625 18 L 52.5 18.75 L 53.25 19 L 53.75 19.5 L 54.125 19.625 L 54.75 20.125 L 55.125 20.25 L 55.625 20.75 L 56.25 21 L 56.75 21.5 L 57.5 21.875 L 58.125 22.5 L 58.125 24.25 L 58 24.375 L 58 24.75 L 57.875 24.875 L 57.75 25.375 L 57.375 25.75 L 57.25 26.125 L 56.75 26.75 L 56.625 26.75 L 56.375 27 L 52.875 27.25 L 52.75 27.375 L 51.75 27.625 L 51.375 27.875 L 50.5 28.125 L 49 29.375 L 48.625 30.125 L 48.25 30.5 L 48 31 L 48 31.375 L 47.875 31.5 L 47.875 32.125 L 47.75 32.25 L 47.75 32.625 L 47.625 32.75 L 47.625 33.125 L 47.5 33.25 L 47.5 33.625 L 47.375 33.75 L 47.25 35.375 L 47.625 36 L 47.875 36.125 L 48.25 36.125 L 48.375 36.25 L 51.75 36.25 L 51.875 36.125 L 52.25 36.125 L 52.375 36.25 L 53 36.25 L 53.75 36.625 L 54 36.625 L 54.5 36.875 L 55.875 38.5 L 55.875 38.75 L 56 38.875 L 56 39.5 L 56.375 40 L 56.625 40.125 L 58.375 40 L 58.625 39.875 L 58.75 39.375 L 58.875 39.25 L 58.75 39 L 58.75 38.625 L 57.875 37 L 57.75 36.5 L 56.625 35.125 L 55.875 34.75 L 55.375 34.25 L 54.875 34.125 L 54.75 34 L 53.75 33.875 L 53.625 33.75 L 53.125 33.75 L 53 33.625 L 50.75 33.625 L 50.25 33.125 L 50.25 32.5 L 50.375 32.375 L 50.375 32.125 L 50.625 31.875 L 50.875 31.375 L 52.5 30 L 53.125 30 L 53.25 29.875 L 54.25 29.875 L 54.375 29.75 L 56.375 29.75 L 57.25 29.375 L 57.75 29 L 58 29 L 58.5 28.75 L 58.875 28.375 L 59.125 27.875 L 59.75 27.25 L 59.875 26.75 L 60.625 25.375 L 60.75 24.125 L 60.875 24 L 60.875 21.375 L 60.625 20.875 L 60.125 20.375 L 59.125 19.875 L 58.25 19.125 L 57.625 18.875 L 56.75 18.125 L 55.625 17.625 L 55.25 17.25 L 54.75 17 L 54.5 17 L 53.375 16 L 52.875 15.875 L 52 15.125 L 51.5 15 L 50.375 14 L 50.125 14 L 49.625 13.75 L 49.25 13.375 L 48.25 12.875 L 47.625 12.375 Z M 3.125 7.875 L 3 8.375 L 2 9.5 L 1.875 10.125 L 1.375 10.75 L 1 11.5 L 1 12 L 0.875 12.125 L 0.875 12.5 L 0.75 12.625 L 0.625 13.125 L 0.25 13.5 L 0 13.5 L 0 20 L 0.375 20.125 L 0.625 20.375 L 0.875 20.875 L 0.875 21.25 L 1 21.375 L 1.125 22.125 L 1.75 22.875 L 2.25 23.875 L 4 25.75 L 4.375 25.875 L 5.5 26.875 L 6.125 27 L 6.625 27.375 L 7.75 27.875 L 8.5 27.875 L 8.625 28 L 9.375 28 L 9.5 28.125 L 10.375 28.125 L 10.5 28 L 11.125 28 L 11.25 27.875 L 11.375 28 L 11.75 28 L 12.125 28.375 L 12.25 28.625 L 12.25 29.25 L 12.125 29.375 L 12.25 29.625 L 12.25 30 L 12.125 30.125 L 12.125 36.375 L 12.25 36.5 L 12.25 38.375 L 12.375 38.5 L 12.5 39.375 L 12.75 39.875 L 12.75 40.375 L 12.875 40.5 L 12.875 41 L 13 41.125 L 13 41.875 L 13.125 42 L 13.125 42.375 L 13.75 43.25 L 13.875 43.75 L 14 43.875 L 14 44.375 L 14.375 45.125 L 14.75 45.5 L 15.125 46.375 L 15.5 46.75 L 15.875 47.375 L 18.625 50.125 L 18.75 50.125 L 19.5 50.875 L 20 51 L 20.375 51.375 L 21 51.75 L 21.25 51.75 L 21.625 52 L 22.125 52 L 23.5 52.875 L 24.125 52.875 L 24.25 53 L 24.75 53 L 24.875 53.125 L 25.25 53.125 L 25.5 53.25 L 25.875 53.625 L 25.875 53.875 L 54.875 53.875 L 54.75 52.75 L 54.25 52 L 54.25 51.75 L 53.875 51.125 L 53.875 50.75 L 53.25 49.75 L 52.875 49.375 L 52.625 48.875 L 51.875 48.125 L 51.125 47.75 L 50.5 47.125 L 50.25 47 L 49.75 47 L 48.875 46.625 L 48.25 46.625 L 48 46.875 L 47.875 47.375 L 47.75 47.5 L 47.75 47.875 L 47.625 48 L 47.625 48.5 L 47.875 48.875 L 48 48.875 L 48.625 49.375 L 49.625 49.875 L 49.875 49.875 L 50.375 50.25 L 50.375 50.875 L 50.125 51.125 L 49.875 51.125 L 49.75 51.25 L 47 51.25 L 46.875 51.125 L 40.375 51.125 L 40.25 51.25 L 39.125 51.25 L 39 51.125 L 38.625 51.125 L 38.25 50.75 L 38.375 50.25 L 38.875 49.75 L 39.5 49.375 L 39.5 49.25 L 40.625 48.125 L 40.875 47.5 L 41.875 46.375 L 42 45.75 L 42.375 45.25 L 42.875 44.25 L 42.875 43.75 L 43 43.625 L 43.125 42.75 L 43.5 42.125 L 43.5 41.875 L 43.75 41.375 L 43.75 40.375 L 43.875 40.25 L 43.875 37.625 L 43.75 37.5 L 43.75 36.75 L 43.625 36.625 L 43.625 36.25 L 43.5 36.125 L 43.375 35.5 L 43.125 35.25 L 43.125 35 L 42.75 34.25 L 42.75 34 L 42 33.125 L 41.75 32.625 L 40.75 31.625 L 40.125 30.625 L 40.125 30 L 40.5 29.25 L 40.5 28.75 L 40.625 28.625 L 40.625 27.5 L 40.75 27.375 L 40.75 26.25 L 40.875 26.125 L 40.875 21.75 L 40.75 21.625 L 40.75 20.5 L 40.625 20.375 L 40.625 19.625 L 40.5 19.5 L 40.375 18.5 L 40.125 18 L 40.125 17.5 L 40 17.375 L 40 17 L 39.875 16.875 L 39.75 15.75 L 39.375 15.25 L 39.25 14.75 L 39 14.375 L 39 14.125 L 38.875 14 L 38.875 13.5 L 38.75 13.375 L 38.625 12.75 L 38.125 12.125 L 37.75 11.25 L 37 10.375 L 36.75 9.875 L 36.75 9.625 L 36.125 9 L 36 8.625 L 35.625 8.25 L 35.625 8.125 L 35.375 8 L 34.875 7.5 L 34.875 7.375 L 33.25 5.75 L 33.125 5.75 L 32.875 5.5 L 32.875 5.375 L 32.5 5 L 32.375 5 L 31.5 4.125 L 30.875 3.875 L 30 3.125 L 29.5 3 L 28.75 2.625 L 28.125 2.125 L 27.5 2 L 26.75 1.625 L 26.125 1.125 L 24.875 1 L 24.75 0.875 L 24 0.75 L 23.375 0.25 L 23.375 0 L 15.125 0 L 15.125 0.125 L 14.75 0.5 L 14.25 0.75 L 13.875 0.75 L 13.75 0.875 L 13.375 0.875 L 13.25 1 L 12.5 1 L 12.375 1.125 L 11.75 1.25 L 11.125 1.75 L 10.625 1.875 L 10.25 2.125 L 10 2.125 L 9.125 2.75 L 8.25 3.125 L 7.25 4 L 6.875 4.125 Z M 12 4 L 12.25 4 L 12.75 3.75 L 13.375 3.75 L 14.875 3 L 15.5 3 L 15.625 2.875 L 16.625 2.875 L 16.75 2.75 L 18.625 2.75 L 18.75 2.625 L 18.875 2.75 L 19.75 2.75 L 19.875 2.625 L 20.25 2.625 L 20.375 2.75 L 21.5 2.75 L 21.625 2.875 L 22.625 2.875 L 22.75 3 L 23.375 3 L 24.5 3.625 L 25.875 3.875 L 26.375 4.125 L 26.75 4.5 L 27.5 4.875 L 28 5 L 28.875 5.75 L 29.375 5.875 L 29.75 6.25 L 29.875 6.25 L 30.125 6.625 L 30.25 6.625 L 31.25 7.5 L 31.375 7.5 L 33 9.125 L 33 9.25 L 33.875 10.125 L 34.125 10.625 L 34.875 11.5 L 35.125 12 L 35.125 12.25 L 35.625 12.75 L 36 13.5 L 36.125 14.125 L 36.625 14.875 L 36.625 15.125 L 37 15.875 L 37 16.375 L 37.125 16.5 L 37.25 17.125 L 37.5 17.5 L 37.5 18 L 37.75 18.5 L 37.875 19.5 L 38 19.625 L 38 21.25 L 38.125 21.375 L 38.125 23.375 L 38.25 23.5 L 38.25 24.375 L 38.125 24.5 L 38.125 26.5 L 38 26.625 L 38 28.125 L 37.875 28.25 L 37.75 28.75 L 37.375 29.125 L 37 29.125 L 36.875 29 L 35.75 28.875 L 35.625 28.75 L 34.875 28.625 L 34.75 28.5 L 32.625 28.5 L 32.5 28.625 L 32 28.625 L 31.875 28.75 L 31.5 28.75 L 31.375 28.875 L 30.75 28.875 L 30.625 29 L 30 29.125 L 29.125 29.75 L 28.25 30.125 L 26.75 31.625 L 26.75 31.75 L 26.125 32.25 L 26.125 32.375 L 25.875 32.625 L 25.75 33.125 L 25.25 33.75 L 25.25 34 L 25 34.5 L 25 35 L 24.875 35.125 L 24.875 36.5 L 24.75 36.625 L 24.75 37.125 L 24.875 37.25 L 25 37.75 L 25.5 38.125 L 27 37.75 L 27.375 37.5 L 27.375 37.25 L 27.5 37.125 L 27.375 37 L 27.375 36.125 L 27.5 36 L 27.5 35.625 L 27.75 35.25 L 27.75 34.875 L 27.875 34.75 L 28 34.25 L 28.375 33.875 L 28.375 33.75 L 30 32.125 L 30.625 31.75 L 31.25 31.625 L 31.75 31.25 L 32.125 31.25 L 32.25 31.125 L 33.25 31.125 L 33.375 31 L 34.375 31 L 34.5 31.125 L 35.125 31.125 L 36.5 31.875 L 36.875 31.875 L 37.375 32.125 L 37.75 32.5 L 38.5 32.875 L 39.875 34.375 L 40.125 35 L 40.75 35.75 L 40.75 36 L 41 36.5 L 41 37.25 L 41.125 37.375 L 41.125 40.125 L 41 40.25 L 41 41.25 L 40.875 41.375 L 40.875 42 L 40.125 43.5 L 39.875 44.375 L 39 45.5 L 38.875 46 L 38.625 46.25 L 38.625 46.375 L 38.375 46.625 L 38.25 46.625 L 37.875 47 L 37.875 47.125 L 36.625 48.25 L 36.625 48.375 L 36.375 48.625 L 35.625 49 L 34.625 49.875 L 34.125 50.125 L 33.875 50.125 L 33.125 50.625 L 32.875 50.625 L 32 51 L 28.5 51.25 L 28.375 51.125 L 27.625 51.125 L 27.5 51 L 25.875 50.875 L 25.125 50.5 L 24.875 50.5 L 24.25 50.125 L 22.75 49.75 L 22 49.125 L 21.5 49 L 20.5 48.125 L 20 47.875 L 18.125 46 L 17.75 45.25 L 17 44.375 L 16.875 44.125 L 16.875 43.75 L 16 42.375 L 16 42.125 L 15.875 42 L 15.875 41.375 L 15.75 41.25 L 15.625 40.625 L 15.375 40.375 L 15.375 40 L 15.25 39.875 L 15.25 39.5 L 15.125 39.375 L 15.125 38.875 L 15 38.75 L 15 37.875 L 14.875 37.75 L 14.875 27.25 L 15.125 26.75 L 16.75 25.125 L 17 24.625 L 17.5 24.125 L 17.875 23.375 L 17.875 23 L 18 22.875 L 18 22.5 L 18.125 22.375 L 18.125 21.875 L 18.25 21.75 L 18.25 21.125 L 18.125 21 L 18.125 20.5 L 18 20.375 L 18 19.75 L 17.875 19.625 L 17.75 19 L 17.5 18.75 L 17.5 18.625 L 16 17.125 L 14.625 16.5 L 14.375 16.25 L 13.875 16.25 L 13.75 16.125 L 12.5 16.25 L 11.25 16.875 L 9.875 18.125 L 9.875 18.25 L 9.125 19.125 L 9.125 19.75 L 9.75 20.375 L 10.25 20.625 L 11.375 20.625 L 11.75 20.25 L 12 19.625 L 12.5 19.125 L 13 18.875 L 13.75 18.875 L 13.875 19 L 14.125 19 L 15 19.875 L 15 20 L 15.5 20.625 L 15.5 20.875 L 15.625 21 L 15.625 21.875 L 15.5 22 L 15.5 22.25 L 15.125 22.75 L 15.125 23 L 14.875 23.5 L 13.5 24.75 L 12.75 25.125 L 12 25.25 L 11.875 25.375 L 11.375 25.375 L 11.25 25.5 L 9.25 25.5 L 8.375 25.125 L 7.5 25 L 6.875 24.625 L 6.5 24.25 L 5.5 23.625 L 4.25 22.25 L 3.75 21.25 L 3.625 20.75 L 3 19.875 L 3 19.625 L 2.875 19.5 L 2.875 18.625 L 2.75 18.5 L 2.75 17.375 L 2.625 17.25 L 2.625 16.625 L 2.75 16.5 L 2.75 15.125 L 2.875 15 L 3 13.625 L 3.75 12.25 L 3.875 11.5 L 4.875 10.375 L 5 9.875 L 5.625 9.25 L 6 8.625 L 7.75 6.875 L 7.875 6.875 L 8.75 6 L 9.25 5.875 L 10.25 5 L 11.125 4.625 Z"/>
</svg>
